<svg xmlns="http://www.w3.org/2000/svg" xml:space="preserve" style="fill-rule:evenodd;clip-rule:evenodd;stroke-linejoin:round;stroke-miterlimit:2" viewBox="0 0 1000 290"><path d="M163.068 286.087c-4.134 1.309-4.13 1.291-8.408 2.07-.568.103-.582-.015-7.122 1.138-4.158.733-24.591 1.139-30.894-.03-9.927-1.84-10.018-1.36-13.079-2.353-7.063-2.292-13.242-2.486-30.704-10.976-16.05-7.804-24.525-16.604-33.448-24.608-1.256-1.127-1.223-1.126-2.449-2.313.493-1.169 1.426-.246 1.926-1.432.045-.106.113-.267-.823-1.186-.366-.359-.966-.455-1.269-.868-.216-.294-.021-.745-.161-1.082-.09-.215-.367-.3-.495-.494-.296-.449-.142-.505-3.337-6.026-1.046-1.808-3.805-8.258-4.245-9.149-.871-1.762-.686-2.359-1.746-5.022-1.12-2.812-1.13-2.795-1.787-5.73-.731-3.266-1.545-3.202-3.228-19.059-.772-7.27-.054-23.082 5.344-37.732 3.41-9.253 5.732-12.324 7.605-15.69 2.507-4.505 8.876-12.447 13.139-16.552 1.458-1.404 9.351-9.005 20.433-14.932 5.866-3.138 14.211-5.831 15.224-6.095 7.474-1.945 7.473-1.948 8.137-2.043 12.096-1.733 16.832-1.841 26.133-.365 8.957 1.421 20.269 6.962 21.078 7.418 4.049 2.286 3.95 2.437 4.303 2.633.264.147.648.054.869.26.169.158 1.834 1.714-.239 2.876-.332.186-.725-.621-1.057-.435-3.483-1.418-6.617-2.898-14.211-3.014-4.227-.065-12.439 2.146-16.39 4.607-5.878 3.661-6.589 5.235-8.104 7.099-.668-.011-.951-1.172-1.619-1.182-.548-.009-.772.779-1.186 1.138-.378.327-.849.548-1.186.916-.373.408-.542.977-.917 1.384-.138.15-.277-.007-1.889 1.715-.179.191-6.837 6.385-11.183 17.084-3.98 9.799-4.715 15.995-4.472 27.173.024 1.085-.23 8.542 4.572 21.242 3.88 10.264 11.016 20.776 15.543 25.788 8.824 9.771 14.933 13.589 18.361 16.052 1.706 1.226 6.221 3.74 7.358 4.339 6.157 3.241 6.253 2.989 12.772 5.41.564.209.572.171 7.175 2.251.312.098 11.575 2.274 15.495 2.479 13.681.713 22.605-1.454 24.899-1.865 1.353-.243 6.064-1.087 16.438-4.995 1.534-.578 12.907-5.834 18.945-10.477 6.529-5.021 9.701-6.938 18.226-16.157 2.033-2.198 8.679-11.269 8.722-11.333 4.495-6.835 6.175-11.442 6.562-12.504.323-.885.472-.812.68-1.718.076-.33-.179-.774.059-1.014.712-.719 1.417-.626 1.549-.609.991.13.617.894 1.624 1.026-6.147 20.609-18.771 39.185-23.238 44.736-2.838 3.527-18.3 24.265-47.009 38.471-10.394 5.143-16.375 6.707-17.862 7.096-.757.198-.708.36-9.415 2.64Z" style="fill:#76aabf"/><path d="M142.77 118.31c.332-.186.725.621 1.057.435 2.073-1.162.407-2.718.239-2.876-.221-.206-.605-.113-.869-.26-.353-.196-.254-.347-4.303-2.633-.809-.457-12.121-5.997-21.078-7.418-9.302-1.476-14.037-1.368-26.133.365-.664.095-.663.098-8.137 2.043-1.014.264-9.358 2.958-15.224 6.095-11.082 5.927-18.975 13.528-20.433 14.932-4.263 4.105-10.632 12.047-13.139 16.552-1.873 3.366-4.196 6.437-7.605 15.69-5.398 14.65-6.116 30.462-5.344 37.732 1.683 15.857 2.497 15.793 3.228 19.059.657 2.935.667 2.918 1.787 5.73 1.06 2.663.875 3.26 1.746 5.022.44.89 3.2 7.341 4.245 9.149 3.195 5.521 3.04 5.578 3.337 6.026.129.195.406.279.495.494.14.337-.055.788.161 1.082.303.413.903.509 1.269.868.935.918.867 1.079.823 1.186-.5 1.186-1.433.263-1.926 1.432-2.84-2.869-2.963-2.738-10.604-11.946-.304-.366-.279-.382-3.533-4.783-3.562-4.818-9.668-15.532-10.66-17.833-1.407-3.263-2.445-4.522-4.695-10.701-.473-1.298-2.49-6.839-4.9-16.563-1.16-4.678-2.563-18.071-2.571-21.417C0 164.53-.01 160.624 1.37 150.309c.484-3.619 6.777-39.649 43.113-60.191 2.804-1.585 17.635-9.97 38.993-10.049 5.436-.02 14.689 1.624 15.378 1.739 13.232 2.213 37.872 13.233 49.63 34.26 3.426 6.126 5.288 6.939 4.663 8.077-.079.143-.565 1.027-2.045.043-.489-.325-.445-.707-3.229-2.878-2.343-1.826-2.435-1.658-5.1-3Z" style="fill:#aad2eb"/><path d="M104.065 127.002c-2.201 3.884-3.146 4.422-6.192 12.739-.322.88-2.276 8.097-1.578 14.192.618 5.398 1.811 10.578 5.433 18.719.276.621.342.581 4.085 7.442 2.226 4.08 10.341 16.53 22.297 25.373 3.065 2.267 3.001 2.318 6.19 4.436 12.624 8.385 21.473 10.13 25.18 11.218 6.914 2.03 7.034 1.316 14.154 2.508 10.693 1.791 18.754.445 28.358-1.238 3.665-.642 13.728-3.736 16.821-5.282 5.909-2.952 6.311-2.232 16.83-9.26.019-.012 5.539-3.173 13.892-11.204.728-.7 4.635-4.457 8.477-9.366 2.633-3.365 3.455-6.273 4.48-6.364 1.198-.105 1.227.262 1.19 1.452-.03.966-1.195 4.119-1.337 4.714-.733 3.074-.771 3.043-1.752 6.064-1.007-.133-.633-.896-1.624-1.026-.132-.017-.837-.11-1.549.609-.238.241.017.684-.059 1.014-.209.906-.358.833-.68 1.718-.387 1.061-2.067 5.669-6.562 12.504-.042.064-6.689 9.134-8.722 11.333-8.525 9.219-11.697 11.136-18.226 16.157-6.037 4.643-17.411 9.899-18.945 10.477-10.373 3.908-15.085 4.753-16.438 4.995-2.294.411-11.218 2.579-24.899 1.865-3.921-.204-15.184-2.38-15.495-2.479-6.603-2.08-6.611-2.041-7.175-2.251-6.519-2.421-6.616-2.169-12.772-5.41-1.137-.599-5.652-3.113-7.358-4.339-3.428-2.464-9.537-6.281-18.361-16.052-4.526-5.012-11.662-15.524-15.543-25.788-4.801-12.701-4.548-20.157-4.572-21.242-.243-11.178.492-17.374 4.472-27.173 4.345-10.699 11.004-16.893 11.183-17.084 1.613-1.722 1.751-1.565 1.889-1.715.375-.407.544-.975.917-1.384.337-.369.808-.589 1.186-.916.414-.359.638-1.146 1.186-1.138.668.011.951 1.172 1.619 1.182" style="fill:#97c6c3"/><path d="M118.788 289.586c-12.649-1.376-27.247-5.121-38.061-9.783-9.897-4.204-17.273-8.331-24.992-13.948-19.604-14.177-35.692-33.59-45.36-54.608-8.063-17.578-11.77-38.176-9.897-55.028 1.49-13.222 5.35-23.998 13.069-36.494 4.127-6.649 8.484-11.846 14.521-17.196 14.368-12.763 28.164-19.107 46.201-21.247 13.719-1.605 29.845 1.108 41.653 6.993 4.7 2.369 10.356 5.809 14.025 8.56 4.165 3.134 10.241 8.942 13.298 12.802 2.599 3.248 9.706 15.438 8.98 15.438-.115 0-1.261-.879-2.56-1.949-2.942-2.369-7.414-4.586-11.961-5.961-3.057-.917-4.051-.994-9.171-.994-4.165 0-6.229.153-7.528.573-1.834.611-1.834.611-1.834-.229 0-.726.344-.955 2.216-1.414 2.751-.688 13.49-.726 15.286-.076 2.178.802 1.299.153-1.911-1.452-6.458-3.172-14.254-5.656-20.75-6.687-7.07-1.07-14.521-.573-25.833 1.72-.994.229-4.165 1.185-7.07 2.14-17.464 5.77-34.125 18.763-44.175 34.393-7.719 12.037-11.655 22.928-13.719 38.023-.65 4.509-.65 15.438 0 20.253 2.216 17.234 8.866 33.628 18.457 45.513 10.088 12.534 18.419 19.107 33.361 26.329 8.789 4.242 15.286 6.611 25.03 9.095 12.496 3.248 19.107 4.089 31.527 4.089 15.362 0 26.138-1.834 41.959-7.108 3.134-1.032 5.923-1.872 6.229-1.872s.535-.153.535-.344c0-.459 3.057-1.567 4.318-1.567 1.643 0 1.223.726-.955 1.681-11.12 4.891-23.043 8.254-34.889 9.859-7.452.955-23.081 1.223-29.998.497Zm67.638-12.573c0-.994 1.299-1.758 3.057-1.758 2.064 0 1.032 1.108-2.102 2.293-.841.306-.955.267-.955-.535m4.586-2.331c0-.841.153-.955 1.337-.955 1.643 0 1.681.382.229 1.261-1.452.841-1.567.841-1.567-.306Zm4.204-2.293c0-.764.191-.955.955-.955.611 0 .955-.229.955-.573 0-.382.42-.573 1.337-.573 1.07 0 1.337-.153 1.337-.764s.267-.764 1.146-.764 1.146-.153 1.146-.764.267-.764 1.337-.764c2.331 0 2.102.191-4.28 4.012-1.911 1.146-3.592 2.102-3.707 2.102s-.229-.42-.229-.955Zm14.903-9.706c0-1.108.115-1.185 1.376-1.185 1.49 0 1.452.344-.229 1.529l-1.146.802zm5.35-4.203c0-1.108.115-1.185 1.376-1.185 1.49 0 1.452.344-.229 1.529l-1.146.802zm9.554-8.828c0-1.032.115-1.146 1.146-1.146 1.032 0 1.108.076.726.726a5.4 5.4 0 0 1-1.146 1.146c-.65.382-.726.306-.726-.726m3.057-3.248c0-1.299.038-1.337 1.414-1.337h1.414l-1.299 1.337c-.726.726-1.337 1.337-1.414 1.337s-.115-.611-.115-1.337m6.878-7.987c0-1.261.076-1.376 1.185-1.376h1.146l-.802 1.146c-1.185 1.681-1.529 1.72-1.529.229Z" style="fill:#aad2eb;fill-rule:nonzero"/><path d="M173.816 281.905c0-.726 2.293-1.796 6.305-2.942.841-.229 1.605-.535 1.72-.65.115-.153 2.866-1.529 6.114-3.134s7.681-3.974 9.821-5.235c2.14-1.299 4.089-2.331 4.318-2.331.191 0 .382-.153.382-.306 0-.267 5.006-3.898 7.184-5.235.344-.191.802-.573 1.032-.802.764-.802 4.318-3.592 4.586-3.592.115 0 .688-.497 1.223-1.146.497-.611 1.07-1.146 1.223-1.146.42 0 10.776-10.547 13.222-13.451 1.223-1.452 2.331-2.599 2.522-2.599s.344-.267.344-.573.344-.764.764-1.032c.42-.267.764-.611.764-.802 0-.153.917-1.529 2.025-3.057 4.395-5.961 11.006-17.234 14.216-24.304 2.216-4.891 2.56-6.42.726-3.21-2.293 3.898-10.394 14.139-14.254 18.037-11.579 11.693-25.183 20.215-39.781 25.03-7.261 2.407-12.152 3.439-19.68 4.242-9.057.955-19.642.573-27.323-.955-3.477-.688-11.579-2.751-12.228-3.095-.306-.153-2.293-.955-4.395-1.72-16.279-6.076-31.909-18.801-41.959-34.163-8.14-12.534-12.916-27.629-12.878-41.004.038-11.502 1.872-19.757 6.535-29.195 7.375-14.865 21.973-26.482 36.265-28.737 3.477-.573 4.968-.535 4.968.115 0 .573-1.146.994-2.942.994-.65 0-3.134.65-5.541 1.49-6.84 2.331-6.573 2.178-11.541 6.344-4.089 3.401-8.789 11.35-10.509 17.769-.955 3.592-1.529 8.292-1.337 11.273.229 3.516 1.299 9.324 2.102 11.464.42 1.07.726 2.14.726 2.446 0 .802 5.426 11.693 7.528 15.133 4.968 8.101 12.572 16.814 19.413 22.317 1.49 1.185 2.751 2.216 2.866 2.369.344.344 5.465 3.936 6.305 4.395 2.446 1.299 7.261 4.204 7.375 4.433.076.191.344.306.573.306.267 0 1.529.497 2.866 1.146 2.255 1.07 9.286 3.477 13.833 4.739 10.165 2.828 25.565 3.745 35.806 2.178 10.738-1.643 21.285-5.082 30.304-9.859 4.204-2.255 13.107-8.14 17.005-11.311 4.624-3.707 12.687-12.267 16.241-17.12 1.72-2.407 3.286-4.395 3.477-4.471.535-.229.42.573-.994 6.42-2.216 8.98-5.732 18.687-9.745 26.941-1.529 3.095-8.675 15.247-11.082 18.725-4.624 6.802-15.133 18.381-21.973 24.228-6 5.159-14.865 11.617-19.489 14.177-6.382 3.592-8.484 4.662-11.846 6.191-5.006 2.293-10.509 4.433-11.999 4.739-.994.191-1.185.115-1.185-.459Z" style="fill:#97c6c4;fill-rule:nonzero"/><path d="M121.654 289.548c-.611-.076-2.79-.344-4.777-.573-10.241-1.108-23.654-4.509-34.201-8.636-4.509-1.758-13.337-6.076-17.196-8.331-10.547-6.267-16.7-11.655-24.954-21.935-9.592-11.885-16.203-28.164-18.457-45.513-.65-4.853-.65-17.999-.038-22.546 2.14-15.171 6.038-25.985 13.757-38.023 8.025-12.496 20.024-23.158 34.087-30.227 4.509-2.293 13.26-5.503 17.158-6.305 4.547-.917 9.974-1.872 11.693-2.064 3.974-.382 12.993-.191 16.738.42 6.076.917 13.986 3.477 20.139 6.458 2.522 1.223 9.171 5.961 12.42 8.789l1.146 1.032-1.337-.802c-3.019-1.872-5.77-3.057-9.477-4.242-5.465-1.643-9.706-1.872-16.508-.841-2.828.42-6.535.994-8.216 1.223-8.522 1.223-19.871 6.344-27.705 12.572-5.885 4.662-13.872 13.872-17.043 19.718-.229.42-.955 1.72-1.605 2.866s-1.796 3.669-2.56 5.541c-.764 1.911-1.605 3.974-1.911 4.586-.267.65-.879 2.522-1.337 4.204-.459 1.681-.994 3.477-1.146 4.012-.191.535-.497 1.987-.726 3.248-.191 1.261-.611 3.516-.879 4.968-.573 3.363-.573 15.018.038 19.107 1.032 6.917 1.376 8.636 2.79 13.91 3.095 11.197 8.025 21.209 15.4 31.183 1.07 1.49 2.216 2.942 2.522 3.248s1.49 1.681 2.599 3.057c6.229 7.605 16.929 16.47 25.451 21.094 11.464 6.229 24.266 10.547 35.157 11.808 6.764.802 18.572.611 23.998-.382 5.35-.955 8.292-1.07 8.292-.267 0 1.108-16.623 5.656-23.884 6.496-10.127 1.223-12.572 1.376-20.062 1.337-4.509-.038-8.713-.153-9.362-.191Z" style="fill:#84b4d7;fill-rule:nonzero"/><path d="M148.595 284.35c-.115-.115-1.911-.306-4.012-.459-5.159-.306-7.681-.726-13.184-2.14-15.477-3.974-28.737-10.662-39.399-19.909-3.745-3.21-8.866-8.331-11.082-11.044-1.108-1.376-2.293-2.751-2.599-3.057s-1.452-1.758-2.522-3.248c-7.375-9.974-12.305-19.986-15.4-31.183-2.446-9.018-3.248-14.942-3.286-24.61-.038-7.146.191-9.706 1.337-15.668.611-3.057 2.866-10.967 3.439-12.037.191-.306.955-2.102 1.681-4.012.764-1.872 1.911-4.395 2.56-5.541a275 275 0 0 0 1.605-2.866c1.299-2.407 4.318-6.573 6.993-9.745 7.987-9.401 15.247-14.712 26.291-19.222 5.923-2.407 7.49-2.79 15.095-3.86.726-.115 3.477-.306 6.114-.382l4.777-.191-3.248.688c-12.687 2.675-23.119 9.63-31.718 21.171-2.637 3.554-6.42 10.967-7.987 15.821-5.426 16.661-3.554 34.584 5.541 52.315 4.28 8.369 9.057 14.789 16.203 21.935 8.789 8.789 19.183 15.591 29.807 19.566 1.987.764 3.974 1.49 4.395 1.681.42.153.841.306.955.344.115.038.459.153.764.267.841.344 8.254 2.102 10.815 2.599 7.605 1.49 16.852 1.834 25.298.917 7.108-.764 12.114-1.834 19.298-4.204 21.82-7.184 41.156-22.661 54.187-43.373 3.745-6 8.025-14.674 9.439-19.222 1.376-4.433.994-1.299-.535 4.28-3.821 14.025-8.407 24.189-17.196 38.29-10.356 16.623-26.559 32.367-44.061 42.8-8.866 5.312-25.03 12.458-26.329 11.655-.153-.115-2.293.153-4.815.611-4.204.726-18.725 1.49-19.222 1.032Z" style="fill:#69a1a9;fill-rule:nonzero"/><path d="M148.703.41c13.939.602 18.772 1.487 34.429 6.334 2.632.815 14.659 5.467 21.124 9.901 4.624 3.172 7.772 4.946 14.745 11.23.501.451 4.681 4.218 5.748 6.159.153.278.189.618.373.876.15.211.452.281.602.492 5.708 9.91 6.389 9.514 11.169 19.923 3.872 8.432 8.305 23.757 8.203 40.517-.075 12.232-1.179 15.953-3.054 24.824-.977 4.625-6.411 18.611-11.756 26.016-1.003 1.39-4.465 6.935-11.16 13.674-13.08 13.165-26.218 19.295-44.309 23.391-3.73.845-19.179 1.834-28.455-.361-6.528-1.545-6.97-1.075-18.113-6.483-2.414-1.172-2.345-1.267-4.727-2.478-.801-.407-1.754-.568-2.433-1.157-.81-.702-.701-1.408-.68-1.541.152-.978.994-.482 1.147-1.471 3.86 1.998 7.376 3.978 12.896 4.244 19.263.93 28.489-13.073 29.063-13.772.911-.041.86.32 1.777.278.114-.005.064-.172 1.357-.421.308-.059.637.056.941-.022.456-.116.865-.373 1.302-.549 1.14-.46 10.271-2.867 13.197-4.559 1.13-.653 2.759-1.249 4.755-2.322 2.351-1.264 2.282-1.338 4.59-2.662.655-.376 7.807-5.072 13.119-10.64 8.016-8.4 11.01-14.78 13.241-18.924.074-.138 2.479-5.866 2.505-5.939 3.557-10.285 5.147-18.291 4.657-29.836-.15-3.537-.996-23.477-16.046-41.24-5.263-6.211-12.29-12.171-15.431-13.959-5.519-3.141-5.409-3.308-5.897-3.563-.715-.374-5.191-2.715-9.27-3.977-7.008-2.169-7.03-2.048-14.249-3.263-5.87-.987-5.864-.922-11.833-.779-4.815.115-4.756.554-9.519 1.191-.462.062-4.343.58-5.754.952-.489.129-.439.248-5.942 2.15-9.583 3.312-13.799 6.706-15.582 7.875-2.292 1.503-14.968 9.817-23.118 25.293-1.541 2.926-3.972 9.497-4.202 9.712-.276.258-.856-.298-1.133-.04-9.581-.136-12.246.039-16.541.826-.879-2.444-.941-2.415-.949-2.639-.014-.41 3.96-10.66 5.399-13.051 1.963-3.26 4.115-7.624 5.776-9.66 1.345-1.65 1.229-1.71 2.48-3.426 2.936-4.025 3.293-4.415 3.616-4.767 1.061-1.157 2.637-3.055 2.769-3.184 8.437-8.181 10.482-9.309 11.548-9.896 3.44-1.897 3.185-2.233 4.08-2.81 9.696-6.251 15.8-8.104 18.368-9.335 1.166-.559 1.124-.699 8.656-2.616 3.702-.943 3.633-1.123 7.022-2.162 1.579-.484 4.68-.545 4.743-.554.407-.055.778-.284 1.186-.336 2.214-.283 2.211.266 2.372.165.572-.36.627-1.274 1.198-1.634Z" style="fill:#faca79"/><path d="M225.723 35.403c1.065-.015.44-1.209 1.491-1.223.137-.002.451-.006 1.234 1.186.291.444.204 1.083.531 1.502.208.267.518-.14 3.37 2.557.638.603.481.712 1.107 1.346 11.447 11.597 19.558 27.44 19.691 27.746 1.085 2.508 6.771 12.722 10.616 28.498 2.403 9.859 2.288 12.889 2.754 17.765 1.106 11.574-1.122 24.639-1.481 26.153-1.737 7.336-1.723 7.334-4.433 14.354-.565 1.464-4.029 10.435-9.082 17.382-9.214 12.667-13.458 15.886-21.923 21.996-2.582 1.864-17.293 12.484-37.09 14.472-8.238.827-8.235.755-16.496.131-2.148-.162-13.17-.995-26.005-6.996-2.37-1.108-6.925-3.727-6.936-3.734-4.976-3.207-4.929-3.257-9.507-7.035-.879-.725-6.276-5.18-9.962-10.182-2.234-3.032-3.816-5.007-3.963-5.271-4.259-7.602-4.779-7.259-5.093-7.945-.755-1.649.751-2.111.931-2.166.688-.211 1.198 1.317 6.079 4.322-.153.989-.995.493-1.147 1.471-.021.133-.13.839.68 1.541.679.588 1.632.75 2.433 1.157 2.382 1.211 2.314 1.306 4.727 2.478 11.143 5.408 11.584 4.938 18.113 6.483 9.276 2.195 24.725 1.205 28.455.361 18.091-4.096 31.229-10.226 44.309-23.391 6.695-6.739 10.157-12.284 11.16-13.674 5.345-7.406 10.779-21.391 11.756-26.016 1.874-8.871 2.979-12.592 3.054-24.824.102-16.761-4.331-32.085-8.203-40.517-4.78-10.409-5.461-10.012-11.169-19.923Z" style="fill:#fae7c4"/><path d="M108.289 68.987c.169-.531.301-1.074.47-1.605 2.701-8.503 12.462-17.188 15.14-18.831 3.172-1.946 2.806-2.563 9.568-5.691 5.814-2.689 9.685-3.358 10.563-3.51 7.28-1.258 13.282-1.887 23.683.592 3.755.895 10.842 3.96 11.954 4.691 1.801 1.185 1.912.978 3.662 2.213 2.146 1.515 2.187 1.421 4.229 3.088 4.281 3.495 9.518 9.867 10.98 12.68 3.646 7.011 7.832 14.019 7.721 27.28-.082 9.78-1.081 12.511-2.323 16.42-4.718 14.851-15.234 22.682-17.552 24.746-2.802 2.494-4.098 3.036-4.211 3.113-2.265 1.543-3.211 1.727-5.199 2.886-3.407 1.985-3.42 2.198-4.567 1.974-.603-.117-1.168-.391-1.77-.508-.972-15.292-11.086-35.681-25.478-48.642-.496-.447-4.791-4.314-6.339-5.43-12.51-9.016-20.845-12.472-30.53-15.466Z" style="fill:#fac670"/><path d="M86.98 65.488c.276-.258.856.298 1.133.04.23-.215 2.661-6.786 4.202-9.712 8.149-15.477 20.825-23.79 23.118-25.293 1.782-1.169 5.998-4.563 15.582-7.875 5.503-1.902 5.453-2.021 5.942-2.15 1.411-.371 5.292-.89 5.754-.952 4.763-.636 4.704-1.076 9.519-1.191 5.968-.142 5.963-.208 11.833.779 7.22 1.214 7.241 1.094 14.249 3.263 4.079 1.263 8.555 3.603 9.27 3.977.488.255.379.422 5.897 3.563 3.141 1.788 10.169 7.748 15.431 13.959 15.05 17.763 15.896 37.703 16.046 41.24.49 11.544-1.1 19.551-4.657 29.836-.025.073-2.431 5.802-2.505 5.939-2.231 4.144-5.225 10.524-13.241 18.924-5.313 5.567-12.464 10.264-13.119 10.64-2.308 1.324-2.239 1.398-4.59 2.662-1.996 1.073-3.625 1.668-4.755 2.322-2.926 1.692-12.058 4.098-13.197 4.559-.437.176-.845.433-1.302.549-.304.077-.633-.037-.941.022-1.293.249-1.244.415-1.357.421-.917.042-.866-.32-1.777-.278.193-.281 2.323-3.393 2.391-3.527 4.92-9.798 4.652-17.144 4.73-18.679.603.117 1.168.391 1.77.508 1.147.223 1.16.01 4.567-1.974 1.989-1.158 2.934-1.342 5.199-2.886.113-.077 1.409-.619 4.211-3.113 2.318-2.064 12.834-9.895 17.552-24.746 1.242-3.909 2.241-6.64 2.323-16.42.111-13.261-4.075-20.269-7.721-27.28-1.463-2.813-6.699-9.185-10.98-12.68-2.042-1.667-2.083-1.574-4.229-3.088-1.75-1.235-1.861-1.029-3.662-2.213-1.112-.732-8.199-3.796-11.954-4.691-10.402-2.479-16.403-1.85-23.683-.592-.877.152-4.749.821-10.563 3.51-6.763 3.128-6.397 3.745-9.568 5.691-2.678 1.643-12.44 10.328-15.14 18.831-.169.531-.301 1.074-.47 1.605-3.472-.868-9.894-2.655-21.309-3.499Z" style="fill:#fab066"/><path d="M148.703.41c-.572.36-.627 1.274-1.198 1.634-.161.101-.158-.448-2.372-.165-.407.052-.779.281-1.186.336-.063.009-3.164.07-4.743.554-3.389 1.038-3.32 1.219-7.022 2.162-7.532 1.918-7.49 2.058-8.656 2.616-2.568 1.23-8.672 3.084-18.368 9.335-.895.577-.64.913-4.08 2.81-1.065.588-3.11 1.716-11.548 9.896-.132.128-1.708 2.027-2.769 3.184-.324.353-.681.742-3.616 4.767-1.251 1.716-1.135 1.776-2.48 3.426-1.66 2.036-3.813 6.4-5.776 9.66-1.439 2.39-5.413 12.641-5.399 13.051.008.224.07.195.949 2.639-.465.081-30.51 2.739-56.048 29.234-5.155 5.348-6.787 9.244-7.185 9.212-.344-.027-.451-.561-.771-.691-.288-.117-.745.246-.932-.002-.431-.571 3.111-8.038 4.465-11.78 3.374-9.33 12.366-26.003 16.76-31.896.237-.318 3.177-4.778 5.959-8.272 7.011-8.804 21.481-25.65 47.058-38.42 1.028-.513 6.117-3.054 13.121-5.826 2.009-.795 14.513-4.766 22.577-5.966 8.55-1.272 13.171-2.6 33.26-1.498" style="fill:#fbd69e"/><path d="M329.633 124.01q-5.349 0-9.87-1.739t-7.852-4.926a22.55 22.55 0 0 1-5.177-7.497q-1.845-4.311-1.846-9.455 0-5.144 1.846-9.454a22.3 22.3 0 0 1 5.21-7.498q3.365-3.186 7.893-4.926 4.529-1.739 9.953-1.739 5.796 0 10.487 1.897t7.94 5.591l-5.395 5.241q-2.68-2.721-5.806-4.001t-6.839-1.28q-3.643 0-6.712 1.187-3.066 1.187-5.31 3.354a14.9 14.9 0 0 0-3.459 5.122q-1.216 2.956-1.216 6.505 0 3.474 1.216 6.435a15.2 15.2 0 0 0 3.459 5.156q2.243 2.194 5.273 3.386 3.03 1.191 6.667 1.191 3.425 0 6.603-1.086 3.18-1.086 6.059-3.651l4.834 6.346q-3.571 2.879-8.323 4.36a32.2 32.2 0 0 1-9.634 1.481Zm17.957-5.84-8.025-1.111v-17.17h8.025zm11.281 5.19V77.426h33.51v7.167h-25.028v31.6h25.937v7.167zm7.832-19.831v-6.984h22.872v6.984zm36.133 19.831V77.426h8.516v38.725h23.992v7.209zm32.842 0 20.651-45.934h8.425l20.708 45.934h-8.927l-17.744-41.384h3.409l-17.744 41.384zm9.542-10.633 2.28-6.699h24.787l2.337 6.699zm60.349 11.283q-5.375 0-10.298-1.541t-7.83-3.983l2.988-6.602q2.766 2.189 6.831 3.623a24.9 24.9 0 0 0 8.328 1.433q3.601 0 5.824-.78 2.223-.782 3.271-2.139a4.88 4.88 0 0 0 1.048-3.06q0-2.104-1.493-3.368-1.492-1.265-3.899-2.042a58 58 0 0 0-5.325-1.421 77 77 0 0 1-5.842-1.534q-2.923-.89-5.33-2.313a11.5 11.5 0 0 1-3.899-3.77q-1.492-2.347-1.492-6.022 0-3.752 1.995-6.862t6.095-4.982q4.1-1.87 10.387-1.871 4.144 0 8.215 1.042 4.072 1.042 7.108 3.018l-2.716 6.65q-3.07-1.877-6.338-2.759t-6.343-.882q-3.488 0-5.715.851-2.227.85-3.242 2.25a5.25 5.25 0 0 0-1.014 3.158q0 2.094 1.492 3.356 1.493 1.26 3.899 2.005t5.33 1.413 5.842 1.529 5.325 2.257a11.2 11.2 0 0 1 3.899 3.737q1.493 2.342 1.493 5.951 0 3.686-2.024 6.797t-6.149 4.986-10.42 1.875Zm41.275 0q-5.375 0-10.298-1.541t-7.83-3.983l2.988-6.602q2.766 2.189 6.831 3.623a24.9 24.9 0 0 0 8.328 1.433q3.601 0 5.824-.78 2.223-.782 3.271-2.139a4.88 4.88 0 0 0 1.048-3.06q0-2.104-1.493-3.368-1.492-1.265-3.899-2.042a58 58 0 0 0-5.325-1.421 77 77 0 0 1-5.842-1.534q-2.923-.89-5.33-2.313a11.5 11.5 0 0 1-3.899-3.77q-1.492-2.347-1.492-6.022 0-3.752 1.995-6.862t6.095-4.982q4.1-1.87 10.387-1.871 4.144 0 8.215 1.042 4.072 1.042 7.108 3.018l-2.716 6.65q-3.07-1.877-6.338-2.759-3.267-.882-6.343-.882-3.488 0-5.715.851-2.227.85-3.242 2.25a5.25 5.25 0 0 0-1.014 3.158q0 2.094 1.492 3.356 1.493 1.26 3.899 2.005t5.33 1.413q2.923.668 5.842 1.529t5.325 2.257a11.2 11.2 0 0 1 3.899 3.737q1.493 2.342 1.493 5.951 0 3.686-2.024 6.797t-6.149 4.986-10.42 1.875Zm27.061-.65V77.426h33.51v7.167h-25.028v31.6h25.937v7.167zm7.832-19.831v-6.984h22.872v6.984zm36.133 19.831V77.426h7.017l28.788 35.381h-3.507V77.426h8.465v45.934h-7.017l-28.787-35.381h3.506v35.381zm85.4 0V77.426h8.516v45.934zm-32.248 0V77.426h8.516v45.934zm7.809-19.672v-7.302h25.089v7.302zm45.343 19.672V77.426h33.51v7.167h-25.028v31.6h25.937v7.167zm7.832-19.831v-6.984h22.872v6.984zm36.133-26.103h8.516v45.934h-8.516zm30.22 45.934V84.635h-15.223v-7.209h38.963v7.209h-15.224v38.725zm71.372.65q-9.422 0-14.756-5.309t-5.335-15.383V77.426h8.516v25.604q0 7.077 3.045 10.304 3.047 3.227 8.603 3.227 5.567 0 8.607-3.227 3.042-3.227 3.042-10.304V77.426h8.367v25.892q0 10.073-5.335 15.383-5.333 5.309-14.756 5.309Zm32.077-.65V77.426h7.017l28.788 35.381h-3.507V77.426h8.465v45.934h-7.017l-28.787-35.381h3.506v35.381zm53.151 0V77.426h20.068q7.449 0 13.089 2.875t8.806 8.021q3.167 5.147 3.167 12.071 0 6.915-3.167 12.067-3.166 5.15-8.806 8.026-5.64 2.874-13.089 2.874zm8.516-7.217h11.124q5.166 0 8.942-1.961t5.867-5.507q2.093-3.547 2.093-8.281 0-4.8-2.093-8.313-2.091-3.514-5.867-5.475-3.775-1.962-8.942-1.961h-11.124zm-653.092 96.38v-58.06h9.248v50.025h31.035v8.035zm49.433 0v-58.06h41.524v8.035h-32.276v41.99h33.44v8.035zm8.511-25.549V179.1h29.443v7.874zm47.061 25.549v-58.06h26.527q10.17 0 15.597 4.055 5.429 4.054 5.429 11.029 0 4.65-2.122 7.924a14.06 14.06 0 0 1-5.582 5.012q-3.46 1.738-7.397 1.738l1.49-2.693q4.701 0 8.451 1.74 3.752 1.74 5.95 5.14 2.199 3.398 2.199 8.372 0 7.461-5.628 11.603-5.627 4.14-16.728 4.141zm9.248-7.55h18.463q6.545 0 10.024-2.146 3.48-2.147 3.48-6.854 0-4.709-3.48-6.893-3.48-2.187-10.024-2.186h-19.2v-7.55h17.058q6.033 0 9.344-2.146 3.313-2.148 3.313-6.517 0-4.371-3.313-6.517-3.31-2.147-9.344-2.147h-16.32v42.959Zm53.705 7.55v-58.06h41.524v8.035h-32.276v41.99h33.44v8.035zm8.511-25.549V179.1h29.443v7.874zm47.061 25.549v-58.06h7.627l37.568 46.383h-3.9v-46.383h9.248v58.06h-7.627l-37.568-46.383h3.9v46.383zm84.599.734q-6.708 0-12.831-2t-9.672-5.162l3.341-7.295q3.382 2.83 8.526 4.707a30.8 30.8 0 0 0 10.634 1.877q4.85 0 7.864-1.096t4.437-2.991a6.9 6.9 0 0 0 1.424-4.25q0-2.856-1.91-4.579t-4.984-2.77q-3.075-1.049-6.813-1.88a110 110 0 0 1-7.474-1.949q-3.738-1.118-6.814-2.895a14.55 14.55 0 0 1-4.986-4.72q-1.91-2.942-1.909-7.584 0-4.623 2.435-8.465 2.437-3.843 7.474-6.158 5.039-2.316 12.809-2.316 5.13 0 10.175 1.331t8.762 3.817l-3.012 7.382q-3.807-2.41-7.956-3.533-4.15-1.124-8.048-1.124-4.681 0-7.694 1.178t-4.396 3.113-1.383 4.374q0 2.858 1.91 4.58t4.986 2.731a82 82 0 0 0 6.813 1.88q3.739.872 7.475 1.949t6.812 2.816a14.2 14.2 0 0 1 4.986 4.677q1.91 2.94 1.91 7.499 0 4.542-2.478 8.385-2.477 3.843-7.559 6.157t-12.854 2.315Zm34.424-.734v-58.06h41.524v8.035h-32.276v50.025zm8.43-22.922v-8.035h29.524v8.035zm44.321 22.922v-58.06h23.129q11.345 0 17.885 5.422t6.54 15.027q0 6.295-2.939 10.849t-8.403 6.997-13.082 2.442h-18.018l4.137-4.299v21.622zm38.478 0-14.774-21.067h9.986l14.856 21.067zm-29.229-20.657-4.137-4.54h17.699q7.619 0 11.516-3.271t3.898-9.143q0-5.955-3.898-9.185-3.897-3.23-11.516-3.23h-17.699l4.137-4.62v33.988Zm51.216 20.657v-58.06h41.524v8.035H775.4v41.99h33.44v8.035zm8.511-25.549V179.1h29.443v7.874zm71.46 26.283q-11.658 0-18.278-6.622-6.619-6.623-6.619-19.301v-32.87h9.248v32.545q0 9.352 4.1 13.662t11.63 4.309q7.528 0 11.629-4.309 4.1-4.311 4.1-13.662v-32.545h9.087v32.87q0 12.678-6.62 19.301-6.618 6.622-18.278 6.622Zm41.126-.734v-58.06h24.806q9.367 0 16.454 3.653t11.062 10.164q3.978 6.513 3.977 15.212 0 8.7-3.977 15.212t-11.062 10.166q-7.086 3.652-16.454 3.652h-24.806Zm9.248-8.035h15.068q6.937 0 11.996-2.637 5.06-2.639 7.859-7.364 2.8-4.727 2.801-10.994 0-6.348-2.801-11.033-2.8-4.686-7.859-7.324-5.058-2.639-11.996-2.639h-15.068v41.99Zm59.262 8.035v-58.06h41.524v8.035h-32.276v41.99h33.44v8.035zm8.511-25.549V179.1h29.443v7.874z" style="fill:#393939;fill-rule:nonzero"/></svg>